<?xml version="1.0" encoding="utf-8"?>
<svg version="1.1" xmlns:xlink="http://www.w3.org/1999/xlink" width="45px" height="25px" xmlns="http://www.w3.org/2000/svg">
  <g transform="matrix(1 0 0 1 -2 -1 )">
    <path d="M 44.1650390625 0.824652777777779  C 44.7216796875 1.37442129629629  45 2.02546296296296  45 2.77777777777778  C 45 3.53009259259259  44.7216796875 4.18113425925926  44.1650390625 4.73090277777778  L 24.4775390625 24.1753472222222  C 23.9208984375 24.7251157407407  23.26171875 25  22.5 25  C 21.73828125 25  21.0791015625 24.7251157407407  20.5224609375 24.1753472222222  L 0.8349609375 4.73090277777778  C 0.2783203125 4.18113425925926  0 3.53009259259259  0 2.77777777777778  C 0 2.02546296296296  0.2783203125 1.37442129629629  0.8349609375 0.824652777777779  C 1.3916015625 0.274884259259256  2.05078125 0  2.8125 0  L 42.1875 0  C 42.94921875 0  43.6083984375 0.274884259259256  44.1650390625 0.824652777777779  Z " fill-rule="nonzero" fill="#333333" stroke="none" transform="matrix(1 0 0 1 2 1 )" />
  </g>
</svg> 