<?xml version="1.0" encoding="utf-8"?>
<svg version="1.1" xmlns:xlink="http://www.w3.org/1999/xlink" width="40px" height="33px" xmlns="http://www.w3.org/2000/svg">
  <g transform="matrix(1 0 0 1 -1839 -62 )">
    <path d="M 14.4711538461538 27.890625  C 15.0801282051282 28.484375  15.3846153846154 29.1875  15.3846153846154 30  C 15.3846153846154 30.8125  15.0801282051282 31.515625  14.4711538461538 32.109375  C 13.8621794871795 32.703125  13.1410256410256 33  12.3076923076923 33  C 11.474358974359 33  10.7532051282051 32.703125  10.1442307692308 32.109375  C 9.53525641025641 31.515625  9.23076923076923 30.8125  9.23076923076923 30  C 9.23076923076923 29.1875  9.53525641025641 28.484375  10.1442307692308 27.890625  C 10.7532051282051 27.296875  11.474358974359 27  12.3076923076923 27  C 13.1410256410256 27  13.8621794871795 27.296875  14.4711538461538 27.890625  Z M 36.0096153846154 27.890625  C 36.6185897435897 28.484375  36.9230769230769 29.1875  36.9230769230769 30  C 36.9230769230769 30.8125  36.6185897435897 31.515625  36.0096153846154 32.109375  C 35.400641025641 32.703125  34.6794871794872 33  33.8461538461538 33  C 33.0128205128205 33  32.2916666666667 32.703125  31.6826923076923 32.109375  C 31.073717948718 31.515625  30.7692307692308 30.8125  30.7692307692308 30  C 30.7692307692308 29.1875  31.073717948718 28.484375  31.6826923076923 27.890625  C 32.2916666666667 27.296875  33.0128205128205 27  33.8461538461538 27  C 34.6794871794872 27  35.400641025641 27.296875  36.0096153846154 27.890625  Z M 39.5432692307692 3.4453125  C 39.8477564102564 3.7421875  40 4.09375  40 4.5  L 40 16.5  C 40 16.875  39.8677884615385 17.20703125  39.6033653846154 17.49609375  C 39.3389423076923 17.78515625  39.0144230769231 17.953125  38.6298076923077 18  L 13.5336538461538 20.859375  C 13.7419871794872 21.796875  13.8461538461538 22.34375  13.8461538461538 22.5  C 13.8461538461538 22.75  13.6538461538462 23.25  13.2692307692308 24  L 35.3846153846154 24  C 35.8012820512821 24  36.161858974359 24.1484375  36.4663461538462 24.4453125  C 36.7708333333333 24.7421875  36.9230769230769 25.09375  36.9230769230769 25.5  C 36.9230769230769 25.90625  36.7708333333333 26.2578125  36.4663461538462 26.5546875  C 36.161858974359 26.8515625  35.8012820512821 27  35.3846153846154 27  L 10.7692307692308 27  C 10.3525641025641 27  9.99198717948718 26.8515625  9.6875 26.5546875  C 9.38301282051282 26.2578125  9.23076923076923 25.90625  9.23076923076923 25.5  C 9.23076923076923 25.328125  9.29487179487179 25.08203125  9.42307692307692 24.76171875  C 9.55128205128205 24.44140625  9.67948717948718 24.16015625  9.80769230769231 23.91796875  C 9.93589743589744 23.67578125  10.1081730769231 23.36328125  10.3245192307692 22.98046875  C 10.5408653846154 22.59765625  10.6650641025641 22.3671875  10.6971153846154 22.2890625  L 6.44230769230769 3  L 1.53846153846154 3  C 1.12179487179487 3  0.761217948717949 2.8515625  0.456730769230769 2.5546875  C 0.15224358974359 2.2578125  0 1.90625  0 1.5  C 0 1.09375  0.15224358974359 0.742187499999995  0.456730769230769 0.445312500000002  C 0.761217948717949 0.148437499999997  1.12179487179487 0  1.53846153846154 0  L 7.69230769230769 0  C 7.94871794871795 0  8.17708333333333 0.0507812499999978  8.37740384615385 0.152343750000001  C 8.57772435897436 0.25390625  8.73397435897436 0.375  8.84615384615385 0.515625  C 8.95833333333333 0.65625  9.0625 0.847656249999995  9.15865384615385 1.08984375  C 9.25480769230769 1.33203125  9.31891025641026 1.53515625  9.35096153846154 1.69921875  C 9.38301282051282 1.86328125  9.42708333333333 2.09375  9.48317307692308 2.390625  C 9.53926282051282 2.6875  9.57532051282051 2.890625  9.59134615384615 3  L 38.4615384615385 3  C 38.8782051282051 3  39.2387820512821 3.1484375  39.5432692307692 3.4453125  Z " fill-rule="nonzero" fill="#DCC265" stroke="none" transform="matrix(1 0 0 1 1839 62 )" />
  </g>
</svg>