<?xml version="1.0" encoding="utf-8"?>
<svg version="1.1" xmlns:xlink="http://www.w3.org/1999/xlink" width="59px" height="59px" xmlns="http://www.w3.org/2000/svg">
  <g transform="matrix(1 0 0 1 -700 -499 )">
    <path d="M 58.6378348214286 20.7421875  C 58.8792782738095 20.9397321428571  59 21.203125  59 21.5323660714286  L 59 53.7321428571429  C 59 55.1808035714286  58.4841889880952 56.4209449404762  57.4525669642857 57.4525669642857  C 56.4209449404762 58.4841889880952  55.1808035714286 59  53.7321428571429 59  L 5.26785714285714 59  C 3.81919642857143 59  2.57905505952381 58.4841889880952  1.54743303571429 57.4525669642857  C 0.515811011904762 56.4209449404762  0 55.1808035714286  0 53.7321428571429  L 0 21.5323660714286  C 0 21.203125  0.120721726190476 20.9397321428571  0.362165178571429 20.7421875  C 0.537760416666667 20.5885416666667  0.96577380952381 20.2099144345238  1.64620535714286 19.6063058035714  C 2.32663690476191 19.002697172619  2.78208705357143 18.6076078869048  3.01255580357143 18.4210379464286  C 3.24302455357143 18.2344680059524  3.74237351190476 17.8229166666667  4.51060267857143 17.1863839285714  C 5.27883184523809 16.5498511904762  6.04706101190476 15.9407552083333  6.81529017857143 15.3590959821429  C 7.58351934523809 14.7774367559524  8.63709077380953 13.9762834821429  9.97600446428571 12.9556361607143  C 11.3149181547619 11.9349888392857  12.8897879464286 10.7606956845238  14.7006138392857 9.43275669642857  C 16.5114397321429 8.10481770833333  18.6240699404762 6.56287202380952  21.0385044642857 4.80691964285714  C 21.1482514880952 4.71912202380952  21.7244233630952 4.28013392857143  22.7670200892857 3.48995535714286  C 23.8096168154762 2.69977678571429  24.5943080357143 2.12360491071429  25.12109375 1.76143973214286  C 25.6478794642857 1.39927455357143  26.3502604166667 1.01515997023809  27.2282366071429 0.609095982142856  C 28.1062127976191 0.203031994047619  28.8634672619048 0  29.5 0  C 30.1365327380952 0  30.893787202381 0.203031994047619  31.7717633928571 0.609095982142856  C 32.6497395833333 1.01515997023809  33.3630952380952 1.4047619047619  33.9118303571429 1.77790178571429  C 34.4605654761905 2.15104166666666  35.2397693452381 2.72172619047619  36.2494419642857 3.48995535714286  C 37.2591145833333 4.25818452380952  37.8297991071429 4.69717261904761  37.9614955357143 4.80691964285714  C 40.3759300595238 6.56287202380952  42.4885602678571 8.10481770833333  44.2993861607143 9.43275669642857  C 46.1102120535714 10.7606956845238  47.6850818452381 11.9349888392857  49.0239955357143 12.9556361607143  C 50.3629092261905 13.9762834821429  51.4164806547619 14.7774367559524  52.1847098214286 15.3590959821429  C 52.9529389880952 15.9407552083333  53.7211681547619 16.5498511904762  54.4893973214286 17.1863839285714  C 55.2576264880952 17.8229166666667  55.7569754464286 18.2344680059524  55.9874441964286 18.4210379464286  C 56.2179129464286 18.6076078869048  56.6733630952381 19.002697172619  57.3537946428571 19.6063058035714  C 58.0342261904762 20.2099144345238  58.4622395833333 20.5885416666667  58.6378348214286 20.7421875  Z M 38.8504464285714 41.9946986607143  C 39.7503720238095 41.3032924107143  40.2771577380952 40.9027157738095  40.4308035714286 40.79296875  C 46.2034970238095 36.6006324404762  49.9897693452381 33.8350074404762  51.7896205357143 32.49609375  C 52.0310639880952 32.3204985119048  52.1682477678572 32.0955171130952  52.201171875 31.8211495535714  C 52.2340959821429 31.5467819940476  52.1627604166667 31.2888764880952  51.9871651785714 31.0474330357143  L 50.7360491071429 29.3353794642857  C 50.5604538690476 29.0939360119048  50.3299851190476 28.9567522321429  50.0446428571429 28.923828125  C 49.7593005952381 28.8909040178571  49.4959077380952 28.9622395833333  49.2544642857143 29.1378348214286  C 44.1841517857143 32.8472842261905  40.4198288690476 35.5909598214286  37.9614955357143 37.3688616071429  C 37.8517485119048 37.4347098214286  37.2810639880952 37.8627232142857  36.2494419642857 38.6529017857143  C 35.2178199404762 39.4430803571429  34.4331287202381 40.0192522321429  33.8953683035714 40.3814174107143  C 33.3576078869048 40.7435825892857  32.6497395833333 41.127697172619  31.7717633928571 41.5337611607143  C 30.893787202381 41.9398251488095  30.1365327380952 42.1428571428571  29.5 42.1428571428571  C 28.8634672619048 42.1428571428571  28.1062127976191 41.9398251488095  27.2282366071429 41.5337611607143  C 26.3502604166667 41.127697172619  25.6423921130952 40.7435825892857  25.1046316964286 40.3814174107143  C 24.5668712797619 40.0192522321429  23.7821800595238 39.4430803571429  22.7505580357143 38.6529017857143  C 21.7189360119048 37.8627232142857  21.1482514880952 37.4347098214286  21.0385044642857 37.3688616071429  C 16.9559151785714 34.4276413690476  13.1915922619048 31.6839657738095  9.74553571428571 29.1378348214286  C 9.50409226190476 28.9622395833333  9.24069940476191 28.8909040178571  8.95535714285714 28.923828125  C 8.67001488095238 28.9567522321429  8.43954613095238 29.0939360119048  8.26395089285714 29.3353794642857  L 7.01283482142857 31.0474330357143  C 6.83723958333333 31.2888764880952  6.76590401785714 31.5467819940476  6.798828125 31.8211495535714  C 6.83175223214286 32.0955171130952  6.96893601190476 32.3204985119048  7.21037946428571 32.49609375  C 9.01023065476191 33.8350074404762  12.7965029761905 36.6006324404762  18.5691964285714 40.79296875  C 18.7886904761905 40.9685639880952  19.3374255952381 41.3856026785714  20.2154017857143 42.0440848214286  C 21.0933779761905 42.7025669642857  21.8067336309524 43.2183779761905  22.35546875 43.5915178571429  C 22.9042038690476 43.9646577380952  23.6065848214286 44.3981584821429  24.4626116071429 44.8920200892857  C 25.3186383928571 45.3858816964286  26.169177827381 45.7535342261905  27.0142299107143 45.9949776785714  C 27.8592819940476 46.2364211309524  28.6878720238095 46.3571428571429  29.5 46.3571428571429  C 30.3121279761905 46.3571428571429  31.1407180059524 46.2364211309524  31.9857700892857 45.9949776785714  C 32.8308221726191 45.7535342261905  33.6978236607143 45.3749069940476  34.5867745535714 44.8590959821429  C 35.4757254464286 44.3432849702381  36.18359375 43.9097842261905  36.7103794642857 43.55859375  C 37.2371651785714 43.2074032738095  37.9505208333333 42.6861049107143  38.8504464285714 41.9946986607143  Z " fill-rule="nonzero" fill="#dcc265" stroke="none" transform="matrix(1 0 0 1 700 499 )" />
  </g>
</svg>