<?xml version="1.0" encoding="utf-8"?>
<!-- Generator: Adobe Illustrator 16.0.0, SVG Export Plug-In . SVG Version: 6.00 Build 0)  -->
<!DOCTYPE svg PUBLIC "-//W3C//DTD SVG 1.1//EN" "http://www.w3.org/Graphics/SVG/1.1/DTD/svg11.dtd">
<svg version="1.1" id="Vrstva_1" xmlns="http://www.w3.org/2000/svg" xmlns:xlink="http://www.w3.org/1999/xlink" x="0px" y="0px"
	 width="14px" height="24px" viewBox="0 0 14 24" enable-background="new 0 0 14 24" xml:space="preserve">
<g transform="matrix(1 0 0 1 -618 -442 )">
	<path fill="#DCC265" d="M629.45,442.24c0.159-0.16,0.345-0.24,0.554-0.24c0.208,0,0.393,0.08,0.553,0.24l1.203,1.203
		c0.16,0.16,0.24,0.344,0.24,0.553s-0.08,0.393-0.24,0.553L622.307,454l9.453,9.451c0.16,0.16,0.24,0.344,0.24,0.553
		s-0.08,0.393-0.24,0.553l-1.203,1.203c-0.16,0.16-0.345,0.24-0.553,0.24c-0.209,0-0.395-0.08-0.554-0.24l-11.21-11.207
		c-0.16-0.16-0.24-0.344-0.24-0.553c0-0.208,0.08-0.393,0.24-0.553L629.45,442.24z"/>
</g>
</svg>
