<?xml version="1.0" encoding="utf-8"?>
<svg version="1.1" xmlns:xlink="http://www.w3.org/1999/xlink" width="59px" height="59px" xmlns="http://www.w3.org/2000/svg">
  <g transform="matrix(1 0 0 1 -374 -499 )">
    <path d="M 58.8742897727273 45.7166193181818  C 58.9580965909091 45.9121685606061  59 46.2054924242424  59 46.5965909090909  C 59 47.3508522727273  58.860321969697 48.3355823863636  58.5809659090909 49.55078125  C 58.3016098484849 50.7659801136364  58.0082859848485 51.7227746212121  57.7009943181818 52.4211647727273  C 57.1143465909091 53.8179450757576  55.4102746212121 55.2985321969697  52.5887784090909 56.8629261363636  C 49.9628314393939 58.2876420454545  47.3648200757576 59  44.7947443181818 59  C 44.0404829545455 59  43.3001893939394 58.9511126893939  42.5738636363636 58.8533380681818  C 41.8475378787879 58.7555634469697  41.0443892045455 58.5809659090909  40.1644176136364 58.3295454545455  C 39.2844460227273 58.078125  38.627959280303 57.8755918560606  38.1949573863636 57.7219460227273  C 37.7619554924242 57.5683001893939  36.9867424242424 57.2819602272727  35.8693181818182 56.8629261363636  C 34.7518939393939 56.4438920454545  34.0674715909091 56.1924715909091  33.8160511363636 56.1086647727273  C 31.0783617424242 55.1309185606061  28.6339962121212 53.9715909090909  26.4829545454545 52.6306818181818  C 22.9351325757576 50.4237689393939  19.2476325757576 47.4067234848485  15.4204545454545 43.5795454545455  C 11.5932765151515 39.7523674242424  8.57623106060606 36.0648674242424  6.36931818181818 32.5170454545455  C 5.02840909090909 30.3660037878788  3.86908143939394 27.9216382575758  2.89133522727273 25.1839488636364  C 2.80752840909091 24.9325284090909  2.55610795454545 24.2481060606061  2.13707386363636 23.1306818181818  C 1.71803977272727 22.0132575757576  1.43169981060606 21.2380445075758  1.27805397727273 20.8050426136364  C 1.12440814393939 20.372040719697  0.921875 19.7155539772727  0.670454545454546 18.8355823863636  C 0.419034090909091 17.9556107954545  0.244436553030303 17.1524621212121  0.146661931818182 16.4261363636364  C 0.0488873106060606 15.6998106060606  0 14.9595170454545  0 14.2052556818182  C 0 11.6351799242424  0.712357954545454 9.03716856060606  2.13707386363636 6.41122159090909  C 3.7014678030303 3.58972537878787  5.18205492424242 1.88565340909091  6.57883522727273 1.29900568181818  C 7.27722537878788 0.991714015151511  8.23401988636364 0.698390151515145  9.44921875 0.41903409090909  C 10.6644176136364 0.139678030303028  11.6491477272727 0  12.4034090909091 0  C 12.7945075757576 0  13.0878314393939 0.0419034090909103  13.2833806818182 0.125710227272724  C 13.7862215909091 0.293323863636365  14.5265151515152 1.35487689393939  15.5042613636364 3.31036931818182  C 15.811553030303 3.84114583333332  16.2305871212121 4.59540719696969  16.7613636363636 5.57315340909091  C 17.2921401515152 6.55089962121212  17.7810132575758 7.43785511363637  18.2279829545455 8.23401988636363  C 18.6749526515152 9.03018465909091  19.1079545454545 9.77746212121212  19.5269886363636 10.4758522727273  C 19.6107954545455 10.5875946969697  19.8552320075758 10.9367897727273  20.2602982954545 11.5234375  C 20.6653645833333 12.1100852272727  20.9656723484849 12.6059422348485  21.1612215909091 13.0110085227273  C 21.3567708333333 13.4160748106061  21.4545454545455 13.8141571969697  21.4545454545455 14.2052556818182  C 21.4545454545455 14.7639678030303  21.0564630681818 15.4623579545455  20.2602982954545 16.3004261363636  C 19.4641335227273 17.1384943181818  18.5981297348485 17.9067234848485  17.6622869318182 18.6051136363636  C 16.7264441287879 19.3035037878788  15.8604403409091 20.0437973484848  15.0642755681818 20.8259943181818  C 14.2681107954545 21.6081912878788  13.8700284090909 22.2507102272727  13.8700284090909 22.7535511363636  C 13.8700284090909 23.0049715909091  13.9398674242424 23.3192471590909  14.0795454545455 23.6963778409091  C 14.2192234848485 24.0735085227273  14.3379498106061 24.3598484848485  14.4357244318182 24.5553977272727  C 14.5334990530303 24.750946969697  14.7290482954545 25.0861742424242  15.0223721590909 25.5610795454545  C 15.3156960227273 26.0359848484848  15.4763257575758 26.3013731060606  15.5042613636364 26.3572443181818  C 17.6273674242424 30.1844223484848  20.0577651515152 33.4668560606061  22.7954545454545 36.2045454545455  C 25.5331439393939 38.9422348484848  28.8155776515152 41.3726325757576  32.6427556818182 43.4957386363636  C 32.6986268939394 43.5236742424242  32.9640151515151 43.6843039772727  33.4389204545455 43.9776278409091  C 33.9138257575758 44.2709517045455  34.249053030303 44.4665009469697  34.4446022727273 44.5642755681818  C 34.6401515151515 44.6620501893939  34.9264914772727 44.7807765151515  35.3036221590909 44.9204545454545  C 35.6807528409091 45.0601325757576  35.9950284090909 45.1299715909091  36.2464488636364 45.1299715909091  C 36.7492897727273 45.1299715909091  37.3918087121212 44.7318892045455  38.1740056818182 43.9357244318182  C 38.9562026515151 43.1395596590909  39.6964962121212 42.2735558712121  40.3948863636364 41.3377130681818  C 41.0932765151515 40.4018702651515  41.8615056818182 39.5358664772727  42.6995738636364 38.7397017045455  C 43.5376420454545 37.9435369318182  44.2360321969697 37.5454545454545  44.7947443181818 37.5454545454545  C 45.1858428030303 37.5454545454545  45.5839251893939 37.6432291666667  45.9889914772727 37.8387784090909  C 46.3940577651515 38.0343276515151  46.8899147727273 38.3346354166667  47.4765625 38.7397017045455  C 48.0632102272727 39.1447679924242  48.4124053030303 39.3892045454545  48.5241477272727 39.4730113636364  C 49.2225378787879 39.8920454545455  49.9698153409091 40.3250473484848  50.7659801136364 40.7720170454545  C 51.5621448863636 41.2189867424242  52.4491003787879 41.7078598484848  53.4268465909091 42.2386363636364  C 54.4045928030303 42.7694128787879  55.1588541666667 43.188446969697  55.6896306818182 43.4957386363636  C 57.6451231060606 44.4734848484848  58.7066761363636 45.2137784090909  58.8742897727273 45.7166193181818  Z " fill-rule="nonzero" fill="#dcc265" stroke="none" transform="matrix(1 0 0 1 374 499 )" />
  </g>
</svg>