<?xml version="1.0" encoding="utf-8"?>
<svg version="1.1" xmlns:xlink="http://www.w3.org/1999/xlink" width="50px" height="42px" xmlns="http://www.w3.org/2000/svg">
  <defs>
    <mask fill="white" id="clip10">
      <path d="M 21.3942307692308 1.67045454545455  C 22.5160256410256 2.78409090909091  23.0769230769231 4.13636363636363  23 5.72727272727273  L 23 26.7272727272727  C 23.0769230769231 28.7954545454545  22.6712740384615 30.7691761363636  21.8599759615385 32.6484375  C 21.0486778846154 34.5276988636364  19.9519230769231 36.1534090909091  18.5697115384615 37.5255681818182  C 17.1875 38.8977272727273  15.5498798076923 39.9865056818182  13.6568509615385 40.7919034090909  C 11.7638221153846 41.5973011363636  9.77564102564103 42  7.69230769230769 42  L 5.76923076923077 42  C 5.24839743589744 42  4.79767628205128 41.8110795454545  4.41706730769231 41.4332386363636  C 4.03645833333333 41.0553977272727  3.84615384615385 40.6079545454545  3.84615384615385 40.0909090909091  L 3.84615384615385 36.2727272727273  C 3.84615384615385 35.7556818181818  4.03645833333333 35.3082386363636  4.41706730769231 34.9303977272727  C 4.79767628205128 34.5525568181818  5.24839743589744 34.3636363636364  5.76923076923077 34.3636363636364  L 7.69230769230769 34.3636363636364  C 9.81570512820513 34.3636363636364  11.6286057692308 33.6178977272727  13.1310096153846 32.1264204545455  C 14.6334134615385 30.6349431818182  15.3846153846154 28.8352272727273  15.3846153846154 26.7272727272727  L 15.3846153846154 25.7727272727273  C 15.3846153846154 24.9772727272727  15.1041666666667 24.3011363636364  14.5432692307692 23.7443181818182  C 13.9823717948718 23.1875  13.3012820512821 22.9090909090909  12.5 22.9090909090909  L 5.76923076923077 22.9090909090909  C 4.16666666666667 22.9090909090909  2.80448717948718 22.3522727272727  1.68269230769231 21.2386363636364  C 0.560897435897436 20.125  0 18.7727272727273  0 17.1818181818182  L 0 5.72727272727273  C 0 4.13636363636363  0.560897435897436 2.78409090909091  1.68269230769231 1.67045454545455  C 2.80448717948718 0.556818181818179  4.16666666666667 0  5.76923076923077 0  L 17.3076923076923 0  C 18.9102564102564 0  20.2724358974359 0.556818181818179  21.3942307692308 1.67045454545455  Z M 48.3173076923077 1.67045454545455  C 49.4391025641026 2.78409090909091  50 4.13636363636363  50 5.72727272727273  L 50 26.7272727272727  C 50 28.7954545454545  49.5943509615385 30.7691761363636  48.7830528846154 32.6484375  C 47.9717548076923 34.5276988636364  46.875 36.1534090909091  45.4927884615385 37.5255681818182  C 44.1105769230769 38.8977272727273  42.4729567307692 39.9865056818182  40.5799278846154 40.7919034090909  C 38.6868990384615 41.5973011363636  36.6987179487179 42  34.6153846153846 42  L 32.6923076923077 42  C 32.1714743589744 42  31.7207532051282 41.8110795454545  31.3401442307692 41.4332386363636  C 30.9595352564103 41.0553977272727  30.7692307692308 40.6079545454545  30.7692307692308 40.0909090909091  L 30.7692307692308 36.2727272727273  C 30.7692307692308 35.7556818181818  30.9595352564103 35.3082386363636  31.3401442307692 34.9303977272727  C 31.7207532051282 34.5525568181818  32.1714743589744 34.3636363636364  32.6923076923077 34.3636363636364  L 34.6153846153846 34.3636363636364  C 36.7387820512821 34.3636363636364  38.5516826923077 33.6178977272727  40.0540865384615 32.1264204545455  C 41.5564903846154 30.6349431818182  42.3076923076923 28.8352272727273  42.3076923076923 26.7272727272727  L 42.3076923076923 25.7727272727273  C 42.3076923076923 24.9772727272727  42.0272435897436 24.3011363636364  41.4663461538462 23.7443181818182  C 40.9054487179487 23.1875  40.224358974359 22.9090909090909  39.4230769230769 22.9090909090909  L 32.6923076923077 22.9090909090909  C 31.0897435897436 22.9090909090909  29.7275641025641 22.3522727272727  28.6057692307692 21.2386363636364  C 27.4839743589744 20.125  26.9230769230769 18.7727272727273  27 17.1818181818182  L 27 5.72727272727273  C 26.9230769230769 4.13636363636363  27.4839743589744 2.78409090909091  28.6057692307692 1.67045454545455  C 29.7275641025641 0.556818181818179  31.0897435897436 0  32.6923076923077 0  L 44.2307692307692 0  C 45.8333333333333 0  47.1955128205128 0.556818181818179  48.3173076923077 1.67045454545455  Z " fill-rule="evenodd" />
    </mask>
  </defs>
  <g transform="matrix(1 0 0 1 -575 -3104 )">
    <path d="M 21.3942307692308 1.67045454545455  C 22.5160256410256 2.78409090909091  23.0769230769231 4.13636363636363  23 5.72727272727273  L 23 26.7272727272727  C 23.0769230769231 28.7954545454545  22.6712740384615 30.7691761363636  21.8599759615385 32.6484375  C 21.0486778846154 34.5276988636364  19.9519230769231 36.1534090909091  18.5697115384615 37.5255681818182  C 17.1875 38.8977272727273  15.5498798076923 39.9865056818182  13.6568509615385 40.7919034090909  C 11.7638221153846 41.5973011363636  9.77564102564103 42  7.69230769230769 42  L 5.76923076923077 42  C 5.24839743589744 42  4.79767628205128 41.8110795454545  4.41706730769231 41.4332386363636  C 4.03645833333333 41.0553977272727  3.84615384615385 40.6079545454545  3.84615384615385 40.0909090909091  L 3.84615384615385 36.2727272727273  C 3.84615384615385 35.7556818181818  4.03645833333333 35.3082386363636  4.41706730769231 34.9303977272727  C 4.79767628205128 34.5525568181818  5.24839743589744 34.3636363636364  5.76923076923077 34.3636363636364  L 7.69230769230769 34.3636363636364  C 9.81570512820513 34.3636363636364  11.6286057692308 33.6178977272727  13.1310096153846 32.1264204545455  C 14.6334134615385 30.6349431818182  15.3846153846154 28.8352272727273  15.3846153846154 26.7272727272727  L 15.3846153846154 25.7727272727273  C 15.3846153846154 24.9772727272727  15.1041666666667 24.3011363636364  14.5432692307692 23.7443181818182  C 13.9823717948718 23.1875  13.3012820512821 22.9090909090909  12.5 22.9090909090909  L 5.76923076923077 22.9090909090909  C 4.16666666666667 22.9090909090909  2.80448717948718 22.3522727272727  1.68269230769231 21.2386363636364  C 0.560897435897436 20.125  0 18.7727272727273  0 17.1818181818182  L 0 5.72727272727273  C 0 4.13636363636363  0.560897435897436 2.78409090909091  1.68269230769231 1.67045454545455  C 2.80448717948718 0.556818181818179  4.16666666666667 0  5.76923076923077 0  L 17.3076923076923 0  C 18.9102564102564 0  20.2724358974359 0.556818181818179  21.3942307692308 1.67045454545455  Z M 48.3173076923077 1.67045454545455  C 49.4391025641026 2.78409090909091  50 4.13636363636363  50 5.72727272727273  L 50 26.7272727272727  C 50 28.7954545454545  49.5943509615385 30.7691761363636  48.7830528846154 32.6484375  C 47.9717548076923 34.5276988636364  46.875 36.1534090909091  45.4927884615385 37.5255681818182  C 44.1105769230769 38.8977272727273  42.4729567307692 39.9865056818182  40.5799278846154 40.7919034090909  C 38.6868990384615 41.5973011363636  36.6987179487179 42  34.6153846153846 42  L 32.6923076923077 42  C 32.1714743589744 42  31.7207532051282 41.8110795454545  31.3401442307692 41.4332386363636  C 30.9595352564103 41.0553977272727  30.7692307692308 40.6079545454545  30.7692307692308 40.0909090909091  L 30.7692307692308 36.2727272727273  C 30.7692307692308 35.7556818181818  30.9595352564103 35.3082386363636  31.3401442307692 34.9303977272727  C 31.7207532051282 34.5525568181818  32.1714743589744 34.3636363636364  32.6923076923077 34.3636363636364  L 34.6153846153846 34.3636363636364  C 36.7387820512821 34.3636363636364  38.5516826923077 33.6178977272727  40.0540865384615 32.1264204545455  C 41.5564903846154 30.6349431818182  42.3076923076923 28.8352272727273  42.3076923076923 26.7272727272727  L 42.3076923076923 25.7727272727273  C 42.3076923076923 24.9772727272727  42.0272435897436 24.3011363636364  41.4663461538462 23.7443181818182  C 40.9054487179487 23.1875  40.224358974359 22.9090909090909  39.4230769230769 22.9090909090909  L 32.6923076923077 22.9090909090909  C 31.0897435897436 22.9090909090909  29.7275641025641 22.3522727272727  28.6057692307692 21.2386363636364  C 27.4839743589744 20.125  26.9230769230769 18.7727272727273  27 17.1818181818182  L 27 5.72727272727273  C 26.9230769230769 4.13636363636363  27.4839743589744 2.78409090909091  28.6057692307692 1.67045454545455  C 29.7275641025641 0.556818181818179  31.0897435897436 0  32.6923076923077 0  L 44.2307692307692 0  C 45.8333333333333 0  47.1955128205128 0.556818181818179  48.3173076923077 1.67045454545455  Z " fill-rule="nonzero" fill="#000000" stroke="none" fill-opacity="0" transform="matrix(1 0 0 1 575 3104 )" />
    <path d="M 21.3942307692308 1.67045454545455  C 22.5160256410256 2.78409090909091  23.0769230769231 4.13636363636363  23 5.72727272727273  L 23 26.7272727272727  C 23.0769230769231 28.7954545454545  22.6712740384615 30.7691761363636  21.8599759615385 32.6484375  C 21.0486778846154 34.5276988636364  19.9519230769231 36.1534090909091  18.5697115384615 37.5255681818182  C 17.1875 38.8977272727273  15.5498798076923 39.9865056818182  13.6568509615385 40.7919034090909  C 11.7638221153846 41.5973011363636  9.77564102564103 42  7.69230769230769 42  L 5.76923076923077 42  C 5.24839743589744 42  4.79767628205128 41.8110795454545  4.41706730769231 41.4332386363636  C 4.03645833333333 41.0553977272727  3.84615384615385 40.6079545454545  3.84615384615385 40.0909090909091  L 3.84615384615385 36.2727272727273  C 3.84615384615385 35.7556818181818  4.03645833333333 35.3082386363636  4.41706730769231 34.9303977272727  C 4.79767628205128 34.5525568181818  5.24839743589744 34.3636363636364  5.76923076923077 34.3636363636364  L 7.69230769230769 34.3636363636364  C 9.81570512820513 34.3636363636364  11.6286057692308 33.6178977272727  13.1310096153846 32.1264204545455  C 14.6334134615385 30.6349431818182  15.3846153846154 28.8352272727273  15.3846153846154 26.7272727272727  L 15.3846153846154 25.7727272727273  C 15.3846153846154 24.9772727272727  15.1041666666667 24.3011363636364  14.5432692307692 23.7443181818182  C 13.9823717948718 23.1875  13.3012820512821 22.9090909090909  12.5 22.9090909090909  L 5.76923076923077 22.9090909090909  C 4.16666666666667 22.9090909090909  2.80448717948718 22.3522727272727  1.68269230769231 21.2386363636364  C 0.560897435897436 20.125  0 18.7727272727273  0 17.1818181818182  L 0 5.72727272727273  C 0 4.13636363636363  0.560897435897436 2.78409090909091  1.68269230769231 1.67045454545455  C 2.80448717948718 0.556818181818179  4.16666666666667 0  5.76923076923077 0  L 17.3076923076923 0  C 18.9102564102564 0  20.2724358974359 0.556818181818179  21.3942307692308 1.67045454545455  Z " stroke-width="2" stroke="#dcc265" fill="none" transform="matrix(1 0 0 1 575 3104 )" mask="url(#clip10)" />
    <path d="M 48.3173076923077 1.67045454545455  C 49.4391025641026 2.78409090909091  50 4.13636363636363  50 5.72727272727273  L 50 26.7272727272727  C 50 28.7954545454545  49.5943509615385 30.7691761363636  48.7830528846154 32.6484375  C 47.9717548076923 34.5276988636364  46.875 36.1534090909091  45.4927884615385 37.5255681818182  C 44.1105769230769 38.8977272727273  42.4729567307692 39.9865056818182  40.5799278846154 40.7919034090909  C 38.6868990384615 41.5973011363636  36.6987179487179 42  34.6153846153846 42  L 32.6923076923077 42  C 32.1714743589744 42  31.7207532051282 41.8110795454545  31.3401442307692 41.4332386363636  C 30.9595352564103 41.0553977272727  30.7692307692308 40.6079545454545  30.7692307692308 40.0909090909091  L 30.7692307692308 36.2727272727273  C 30.7692307692308 35.7556818181818  30.9595352564103 35.3082386363636  31.3401442307692 34.9303977272727  C 31.7207532051282 34.5525568181818  32.1714743589744 34.3636363636364  32.6923076923077 34.3636363636364  L 34.6153846153846 34.3636363636364  C 36.7387820512821 34.3636363636364  38.5516826923077 33.6178977272727  40.0540865384615 32.1264204545455  C 41.5564903846154 30.6349431818182  42.3076923076923 28.8352272727273  42.3076923076923 26.7272727272727  L 42.3076923076923 25.7727272727273  C 42.3076923076923 24.9772727272727  42.0272435897436 24.3011363636364  41.4663461538462 23.7443181818182  C 40.9054487179487 23.1875  40.224358974359 22.9090909090909  39.4230769230769 22.9090909090909  L 32.6923076923077 22.9090909090909  C 31.0897435897436 22.9090909090909  29.7275641025641 22.3522727272727  28.6057692307692 21.2386363636364  C 27.4839743589744 20.125  26.9230769230769 18.7727272727273  27 17.1818181818182  L 27 5.72727272727273  C 26.9230769230769 4.13636363636363  27.4839743589744 2.78409090909091  28.6057692307692 1.67045454545455  C 29.7275641025641 0.556818181818179  31.0897435897436 0  32.6923076923077 0  L 44.2307692307692 0  C 45.8333333333333 0  47.1955128205128 0.556818181818179  48.3173076923077 1.67045454545455  Z " stroke-width="2" stroke="#dcc265" fill="none" transform="matrix(1 0 0 1 575 3104 )" mask="url(#clip10)" />
  </g>
</svg>