<?xml version="1.0" encoding="utf-8"?>
<!-- Generator: Adobe Illustrator 16.0.0, SVG Export Plug-In . SVG Version: 6.00 Build 0)  -->
<!DOCTYPE svg PUBLIC "-//W3C//DTD SVG 1.1//EN" "http://www.w3.org/Graphics/SVG/1.1/DTD/svg11.dtd">
<svg version="1.1" id="Vrstva_1" xmlns="http://www.w3.org/2000/svg" xmlns:xlink="http://www.w3.org/1999/xlink" x="0px" y="0px"
	 width="14px" height="24px" viewBox="0 0 14 24" enable-background="new 0 0 14 24" xml:space="preserve">
<g transform="matrix(1 0 0 1 -618 -442 )">
	<path fill="#DCC265" d="M631.761,453.447c0.159,0.16,0.239,0.346,0.239,0.553c0,0.209-0.08,0.394-0.239,0.554L620.55,465.76
		c-0.159,0.16-0.345,0.24-0.554,0.24c-0.208,0-0.393-0.08-0.553-0.24l-1.203-1.203c-0.16-0.16-0.24-0.344-0.24-0.553
		s0.08-0.393,0.24-0.553l9.453-9.451l-9.453-9.451c-0.16-0.159-0.24-0.344-0.24-0.553s0.08-0.393,0.24-0.553l1.203-1.203
		c0.16-0.16,0.345-0.24,0.553-0.24c0.209,0,0.395,0.08,0.554,0.24L631.761,453.447z"/>
</g>
</svg>
